<svg class="icon" viewBox="0 0 1024 1024" version="1.1" xmlns="http://www.w3.org/2000/svg" width="53.87" height="43.61"><path d="M406 372.5V960h306V444.2l-306-71.7z m256 397.4l-206 98.7V797l206-98.7v71.6z m0-127l-206 98.7V670l206-98.7v71.6z m0-127l-206 98.7V543l150.7-72.2 55.3 13v32.1z m-133-63.3l-73 35v-52.1l73 17.1zM485.4 910L662 825.4V910H485.4z" fill="#C7DDD6"></path><path d="M359.3 372.5V960h306V444.2l-306-71.7z m256 397.4l-206 98.7V797l206-98.7v71.6z m0-127l-206 98.7V670l206-98.7v71.6z m0-127l-206 98.7V543L560 470.9l55.3 13v32z m-133-63.3l-73 35v-52.1l73 17.1zM438.6 910l176.6-84.6V910H438.6z" fill="#296251"></path><path d="M594.6 140.5c-16.9-28.7-41-52.7-69.8-69.4l-12.6-7.3-12.6 7.3c-28.8 16.7-52.9 40.7-69.8 69.4-17.4 29.6-26.6 63.5-26.6 98s9.2 68.4 26.6 98c16.9 28.7 41 52.7 69.8 69.4l12.6 7.3 12.6-7.3c28.8-16.7 52.9-40.7 69.8-69.4 17.4-29.6 26.6-63.5 26.6-98s-9.1-68.4-26.6-98z m-43 170.6c-0.1 0.1-0.2 0.3-0.3 0.4 0.1-1.5 0.1-3 0.1-4.5 0-29-15.8-54.4-39.2-68-23.4 13.6-39.2 39-39.2 68 0 1.5 0.1 3 0.1 4.5-0.1-0.1-0.2-0.3-0.3-0.4-12.9-21.9-19.7-47-19.7-72.6s6.8-50.7 19.7-72.6c10-17 23.4-31.8 39.3-43.4 15.9 11.6 29.3 26.4 39.3 43.4 12.9 21.9 19.7 47 19.7 72.6s-6.7 50.7-19.5 72.6z" fill="#D32424"></path></svg>